<svg width="1500" height="1500" viewBox="0 0 1500 1500" fill="none" xmlns="http://www.w3.org/2000/svg">
<path d="M1149.44 852.557H295.196C275.132 852.557 258.885 836.31 258.885 816.246V187.589C258.885 167.525 275.132 151.278 295.196 151.278H1149.44C1169.51 151.278 1185.76 167.525 1185.76 187.589V816.246C1185.76 836.31 1169.51 852.557 1149.44 852.557Z" fill="url(#paint0_linear_200_2)"/>
<path d="M1185.76 220.438V187.589C1185.76 167.525 1169.51 151.278 1149.44 151.278H295.196C275.132 151.278 258.885 167.525 258.885 187.589V220.527H1185.76V220.438Z" fill="url(#paint1_linear_200_2)"/>
<path d="M315.794 199.487C321.972 199.487 326.98 194.478 326.98 188.3C326.98 182.121 321.972 177.113 315.794 177.113C309.616 177.113 304.607 182.121 304.607 188.3C304.607 194.478 309.616 199.487 315.794 199.487Z" fill="#FFCC00"/>
<path d="M358.852 199.487C365.03 199.487 370.039 194.478 370.039 188.3C370.039 182.121 365.03 177.113 358.852 177.113C352.674 177.113 347.666 182.121 347.666 188.3C347.666 194.478 352.674 199.487 358.852 199.487Z" fill="#FFCC00"/>
<path d="M401.999 199.487C408.177 199.487 413.185 194.478 413.185 188.3C413.185 182.121 408.177 177.113 401.999 177.113C395.821 177.113 390.812 182.121 390.812 188.3C390.812 194.478 395.821 199.487 401.999 199.487Z" fill="#FFCC00"/>
<path d="M923.586 436.176C923.586 436.176 988.573 439.194 1035.89 451.002C1107.89 468.936 1075.31 555.852 1009.26 530.195C943.65 504.626 910.18 484.739 910.18 484.739L923.586 436.176Z" fill="url(#paint2_linear_200_2)"/>
<path d="M967.177 439.639C942.407 436.975 923.586 436.087 923.586 436.087L910.18 484.65C910.18 484.65 933.707 498.588 979.784 518.119C966.2 495.392 965.49 462.455 967.177 439.639Z" fill="url(#paint3_linear_200_2)"/>
<path d="M1031.37 491.308L917.549 458.192L915.951 463.963L1031.37 491.308Z" fill="url(#paint4_linear_200_2)"/>
<path d="M902.104 377.58C902.104 377.58 975.436 330.882 1036.16 307.355C1128.58 271.577 1159.83 391.608 1067.95 414.246C976.679 436.796 924.831 440.88 924.831 440.88L902.104 377.58Z" fill="url(#paint5_linear_200_2)"/>
<path d="M952.353 347.928C923.322 364.086 902.104 377.58 902.104 377.58L924.743 440.881C924.743 440.881 961.143 438.04 1026.49 423.924C994.169 409.541 968.068 374.118 952.353 347.928Z" fill="url(#paint6_linear_200_2)"/>
<path d="M1062.09 354.942L912.312 406.257L915.065 413.892L1062.09 354.942Z" fill="url(#paint7_linear_200_2)"/>
<path d="M868.367 351.834C868.367 351.834 890.651 300.341 914.622 265.805C951.111 213.247 1011.22 266.072 970.288 311.439C929.626 356.539 903.347 377.403 903.347 377.403L868.367 351.834Z" fill="url(#paint8_linear_200_2)"/>
<path d="M884.435 317.742C874.758 336.919 868.277 351.745 868.277 351.745L903.346 377.403C903.346 377.403 921.723 362.754 951.642 331.503C929.092 335.587 902.369 326.088 884.435 317.742Z" fill="url(#paint9_linear_200_2)"/>
<path d="M945.695 281.786L884.17 363.464L888.343 366.483L945.695 281.786Z" fill="url(#paint10_linear_200_2)"/>
<path d="M501.79 674.907C356.634 660.613 409.192 597.845 468.586 523.714C537.48 437.596 758.988 310.906 831.256 317.032C918.971 324.49 975.879 440.792 940.278 519.541C910.093 586.393 646.947 689.201 501.79 674.907Z" fill="url(#paint11_linear_200_2)"/>
<path d="M908.76 357.96C922.61 394.005 924.385 434.667 909.115 468.404C878.93 535.167 615.872 638.064 470.627 623.681C444.525 621.107 424.816 616.934 410.434 611.518C401.023 643.568 420.2 666.829 501.7 674.908C646.857 689.201 909.914 586.393 940.188 519.63C963.538 468.137 947.291 400.664 908.76 357.96Z" fill="url(#paint12_linear_200_2)"/>
<path d="M552.75 591.898C559.941 626.522 576.81 653.245 592.613 671.801C599.981 670.824 607.35 669.67 614.897 668.338C574.856 638.597 552.75 591.898 552.75 591.898Z" fill="#F87C38"/>
<path d="M622.353 507.556C622.353 507.556 598.204 474.352 578.85 429.25C574.589 432.091 570.416 435.021 566.332 437.951C580.093 461.656 598.737 487.846 622.353 507.556Z" fill="#F87C38"/>
<path d="M762.537 418.241C762.537 418.241 741.141 388.855 722.497 347.839C718.236 349.792 713.885 351.745 709.535 353.876C722.941 376.071 740.608 399.864 762.537 418.241Z" fill="#F87C38"/>
<path d="M619.513 439.816C632.065 439.816 642.241 429.641 642.241 417.088C642.241 404.536 632.065 394.361 619.513 394.361C606.961 394.361 596.785 404.536 596.785 417.088C596.785 429.641 606.961 439.816 619.513 439.816Z" fill="white"/>
<path d="M619.513 427.918C625.495 427.918 630.344 423.069 630.344 417.087C630.344 411.105 625.495 406.256 619.513 406.256C613.531 406.256 608.682 411.105 608.682 417.087C608.682 423.069 613.531 427.918 619.513 427.918Z" fill="url(#paint13_linear_200_2)"/>
<path d="M596.786 418.774H558.166C549.909 418.774 543.162 412.027 543.162 403.771V331.947H546.536V403.771C546.536 410.163 551.774 415.401 558.166 415.401H596.786V418.774Z" fill="url(#paint14_linear_200_2)"/>
<path d="M470.984 254.619H657.157C662.572 254.619 667.011 259.058 667.011 264.474V343.755C667.011 349.171 662.572 353.61 657.157 353.61H470.984C465.568 353.61 461.129 349.171 461.129 343.755V264.474C461.129 258.97 465.568 254.619 470.984 254.619Z" fill="url(#paint15_linear_200_2)"/>
<path d="M493.09 321.382H596.697C599.005 321.382 600.958 323.246 600.958 325.643C600.958 327.952 599.094 329.905 596.697 329.905H493.09C490.781 329.905 488.828 328.04 488.828 325.643C488.828 323.335 490.781 321.382 493.09 321.382Z" fill="url(#paint16_linear_200_2)"/>
<path d="M493.09 299.809H625.906C628.214 299.809 630.167 301.673 630.167 304.071C630.167 306.379 628.303 308.332 625.906 308.332H493.09C490.781 308.332 488.828 306.468 488.828 304.071C488.828 301.762 490.781 299.809 493.09 299.809Z" fill="url(#paint17_linear_200_2)"/>
<path d="M493.09 278.235H625.906C628.214 278.235 630.167 280.099 630.167 282.496C630.167 284.804 628.303 286.758 625.906 286.758H493.09C490.781 286.758 488.828 284.893 488.828 282.496C488.828 280.188 490.781 278.235 493.09 278.235Z" fill="url(#paint18_linear_200_2)"/>
<path d="M840.755 106H1026.93C1032.34 106 1036.78 110.439 1036.78 115.855V195.136C1036.78 200.552 1032.34 204.991 1026.93 204.991H840.755C835.339 204.991 830.9 200.552 830.9 195.136V115.855C830.9 110.439 835.339 106 840.755 106Z" fill="url(#paint19_linear_200_2)"/>
<path d="M862.951 172.853H966.558C968.866 172.853 970.82 174.717 970.82 177.114C970.82 179.422 968.955 181.375 966.558 181.375H862.951C860.643 181.375 858.689 179.511 858.689 177.114C858.689 174.717 860.554 172.853 862.951 172.853Z" fill="url(#paint20_linear_200_2)"/>
<path d="M862.951 151.278H995.767C998.075 151.278 1000.03 153.143 1000.03 155.54C1000.03 157.848 998.164 159.801 995.767 159.801H862.951C860.643 159.801 858.689 157.937 858.689 155.54C858.689 153.143 860.554 151.278 862.951 151.278Z" fill="url(#paint21_linear_200_2)"/>
<path d="M862.951 129.704H995.767C998.075 129.704 1000.03 131.568 1000.03 133.966C1000.03 136.275 998.164 138.228 995.767 138.228H862.951C860.643 138.228 858.689 136.363 858.689 133.966C858.689 131.568 860.554 129.704 862.951 129.704Z" fill="url(#paint22_linear_200_2)"/>
<path d="M709.625 719.475C768.072 719.475 815.452 672.094 815.452 613.648C815.452 555.202 768.072 507.821 709.625 507.821C651.179 507.821 603.799 555.202 603.799 613.648C603.799 672.094 651.179 719.475 709.625 719.475Z" fill="url(#paint23_linear_200_2)"/>
<path d="M709.626 688.934C751.205 688.934 784.912 655.228 784.912 613.648C784.912 572.069 751.205 538.362 709.626 538.362C668.047 538.362 634.34 572.069 634.34 613.648C634.34 655.228 668.047 688.934 709.626 688.934Z" fill="url(#paint24_linear_200_2)"/>
<path d="M685.922 644.012V583.108C685.922 578.403 691.071 575.562 695.066 578.136L743.097 608.588C746.737 610.896 746.737 616.312 743.097 618.62L695.066 649.072C691.071 651.558 685.922 648.717 685.922 644.012Z" fill="url(#paint25_linear_200_2)"/>
<path d="M933.884 304.514C946.436 304.514 956.612 294.339 956.612 281.786C956.612 269.234 946.436 259.059 933.884 259.059C921.332 259.059 911.156 269.234 911.156 281.786C911.156 294.339 921.332 304.514 933.884 304.514Z" fill="white"/>
<path d="M933.884 292.617C939.866 292.617 944.715 287.768 944.715 281.786C944.715 275.804 939.866 270.955 933.884 270.955C927.902 270.955 923.053 275.804 923.053 281.786C923.053 287.768 927.902 292.617 933.884 292.617Z" fill="url(#paint26_linear_200_2)"/>
<path d="M935.569 204.991H932.195V259.058H935.569V204.991Z" fill="url(#paint27_linear_200_2)"/>
<path d="M459.796 407.854H128.466C117.368 407.854 108.312 398.799 108.312 387.701V305.49C108.312 294.393 117.368 285.337 128.466 285.337H459.796C470.893 285.337 479.949 294.393 479.949 305.49V387.701C479.949 398.799 470.893 407.854 459.796 407.854Z" fill="url(#paint28_linear_200_2)"/>
<path d="M438.131 330.614H250.005C247.607 330.614 245.654 328.661 245.654 326.264C245.654 323.867 247.607 321.914 250.005 321.914H438.131C440.528 321.914 442.481 323.867 442.481 326.264C442.392 328.75 440.528 330.614 438.131 330.614Z" fill="url(#paint29_linear_200_2)"/>
<path d="M438.131 350.856H250.005C247.607 350.856 245.654 348.903 245.654 346.506C245.654 344.11 247.607 342.157 250.005 342.157H438.131C440.528 342.157 442.481 344.11 442.481 346.506C442.392 348.992 440.528 350.856 438.131 350.856Z" fill="url(#paint30_linear_200_2)"/>
<path d="M402.086 371.098H250.005C247.607 371.098 245.654 369.145 245.654 366.748C245.654 364.351 247.607 362.398 250.005 362.398H402.086C404.483 362.398 406.436 364.351 406.436 366.748C406.347 369.234 404.483 371.098 402.086 371.098Z" fill="url(#paint31_linear_200_2)"/>
<path d="M187.948 388.767C211.239 388.767 230.119 369.886 230.119 346.596C230.119 323.306 211.239 304.425 187.948 304.425C164.658 304.425 145.777 323.306 145.777 346.596C145.777 369.886 164.658 388.767 187.948 388.767Z" fill="url(#paint32_linear_200_2)"/>
<path d="M187.414 350.857L176.494 353.343L169.303 330.881C167.971 326.531 170.545 322.003 174.984 321.027C179.424 320.05 183.685 323.069 184.306 327.508L187.414 350.857Z" fill="white"/>
<path d="M188.834 350.946L199.754 353.254L206.679 330.704C208.011 326.353 205.347 321.826 200.908 320.938C196.469 319.961 192.208 323.069 191.675 327.508L188.834 350.946Z" fill="white"/>
<path d="M188.036 372.342C198.088 372.342 206.236 364.194 206.236 354.142C206.236 344.091 198.088 335.942 188.036 335.942C177.984 335.942 169.836 344.091 169.836 354.142C169.836 364.194 177.984 372.342 188.036 372.342Z" fill="white"/>
<path d="M981.469 378.912H1101.86C1113.4 378.912 1122.72 369.59 1122.72 358.048V243.166C1122.72 231.625 1113.4 222.303 1101.86 222.303H981.469C969.927 222.303 960.605 231.625 960.605 243.166V358.048C960.605 369.59 969.927 378.912 981.469 378.912Z" fill="url(#paint33_linear_200_2)"/>
<path d="M1040.06 348.194C1067.32 348.194 1089.43 326.088 1089.43 298.832C1089.43 271.576 1067.32 249.469 1040.06 249.469C1012.81 249.469 990.701 271.576 990.701 298.832C990.701 326.088 1012.81 348.194 1040.06 348.194ZM1040.06 259.857C1061.55 259.857 1079.04 277.258 1079.04 298.832C1079.04 320.406 1061.64 337.807 1040.06 337.807C1018.58 337.807 1001.09 320.406 1001.09 298.832C1001.09 277.258 1018.58 259.857 1040.06 259.857Z" fill="url(#paint34_linear_200_2)"/>
<path d="M1002.33 289.243C1006.59 272.375 1021.86 259.857 1040.06 259.857C1061.55 259.857 1079.04 277.258 1079.04 298.832C1079.04 308.509 1075.49 317.298 1069.72 324.045L1076.55 332.036C1084.54 323.246 1089.51 311.616 1089.51 298.743C1089.51 271.487 1067.41 249.381 1040.15 249.381C1016.18 249.381 996.206 266.515 991.678 289.155H1002.33V289.243Z" fill="url(#paint35_linear_200_2)"/>
<path d="M1433.45 347.572V480.921C1433.45 487.846 1427.86 493.439 1420.93 493.439H1096.62C1089.69 493.439 1084.1 487.846 1084.1 480.921V347.572C1084.1 340.647 1089.69 335.054 1096.62 335.054H1420.93C1427.77 335.054 1433.45 340.647 1433.45 347.572Z" fill="url(#paint36_linear_200_2)"/>
<path d="M1433.45 452.423V481.01C1433.45 487.935 1427.86 493.528 1420.93 493.528H1096.62C1089.69 493.528 1084.1 487.935 1084.1 481.01V452.423H1433.45Z" fill="url(#paint37_linear_200_2)"/>
<path d="M1433.45 370.123V377.137C1398.38 358.049 1383.02 375.716 1366.87 394.36C1356.03 406.878 1344.85 419.84 1327.71 419.84C1306.58 419.84 1296.11 409.897 1285.99 400.309C1276.31 391.164 1267.16 382.464 1248.52 382.464C1230.94 382.464 1219.4 397.823 1208.21 412.56C1197.92 426.233 1188.24 439.195 1174.12 439.195C1159.12 439.195 1150.51 431.115 1142.87 424.102C1135.68 417.443 1129.47 411.672 1118.81 411.672C1102.48 411.672 1089.78 421.172 1084.01 426.499V418.42C1091.47 412.56 1103.63 405.547 1118.81 405.547C1131.95 405.547 1139.59 412.738 1147.04 419.663C1154.5 426.588 1161.52 433.157 1174.12 433.157C1185.13 433.157 1193.92 421.438 1203.24 409.009C1214.78 393.739 1227.75 376.427 1248.43 376.427C1269.56 376.427 1280.04 386.37 1290.16 395.958C1299.84 405.103 1308.98 413.803 1327.62 413.803C1341.92 413.803 1351.77 402.439 1362.16 390.543C1378.05 371.988 1395.99 351.213 1433.45 370.123Z" fill="url(#paint38_linear_200_2)"/>
<path d="M1162.94 363.021H1107.63C1106.65 363.021 1105.85 362.222 1105.85 361.245V358.404C1105.85 357.428 1106.65 356.629 1107.63 356.629H1162.94C1163.91 356.629 1164.71 357.428 1164.71 358.404V361.245C1164.71 362.222 1163.91 363.021 1162.94 363.021Z" fill="url(#paint39_linear_200_2)"/>
<path d="M1147.85 375.273H1107.72C1106.74 375.273 1105.94 374.473 1105.94 373.497V370.655C1105.94 369.679 1106.74 368.879 1107.72 368.879H1147.85C1148.82 368.879 1149.62 369.679 1149.62 370.655V373.497C1149.62 374.473 1148.82 375.273 1147.85 375.273Z" fill="url(#paint40_linear_200_2)"/>
<path d="M1188.42 475.86H1152.64C1151.84 475.86 1151.22 475.239 1151.22 474.439V471.51C1151.22 470.711 1151.84 470.089 1152.64 470.089H1188.42C1189.21 470.089 1189.84 470.711 1189.84 471.51V474.439C1189.84 475.239 1189.13 475.86 1188.42 475.86Z" fill="white"/>
<path d="M1247.19 475.86H1211.41C1210.61 475.86 1209.99 475.239 1209.99 474.439V471.51C1209.99 470.711 1210.61 470.089 1211.41 470.089H1247.19C1247.99 470.089 1248.61 470.711 1248.61 471.51V474.439C1248.61 475.239 1247.99 475.86 1247.19 475.86Z" fill="white"/>
<path d="M1306.05 475.86H1270.27C1269.47 475.86 1268.85 475.239 1268.85 474.439V471.51C1268.85 470.711 1269.47 470.089 1270.27 470.089H1306.05C1306.85 470.089 1307.47 470.711 1307.47 471.51V474.439C1307.38 475.239 1306.76 475.86 1306.05 475.86Z" fill="white"/>
<path d="M1364.82 475.86H1329.04C1328.24 475.86 1327.62 475.239 1327.62 474.439V471.51C1327.62 470.711 1328.24 470.089 1329.04 470.089H1364.82C1365.62 470.089 1366.24 470.711 1366.24 471.51V474.439C1366.24 475.239 1365.62 475.86 1364.82 475.86Z" fill="white"/>
<path d="M992.302 1115.97H322.273C307.713 1115.97 291.644 1104.16 286.317 1089.6L171.524 774.164C166.197 759.604 173.743 747.796 188.303 747.796H858.331C872.892 747.796 888.961 759.604 894.288 774.164L1009.08 1089.6C1014.32 1104.16 1006.86 1115.97 992.302 1115.97Z" fill="url(#paint41_linear_200_2)"/>
<path opacity="0.5" d="M931.842 1078.33H333.992C321.652 1078.33 310.643 1070.6 306.47 1059.06L218.932 818.555C212.007 799.467 226.124 779.225 246.454 779.225H844.304C856.644 779.225 867.653 786.949 871.826 798.49L959.364 1039C966.377 1058.17 952.172 1078.33 931.842 1078.33Z" fill="url(#paint42_linear_200_2)"/>
<path d="M359.118 1053.91H417.802L426.68 1078.33H438.399L429.521 1053.91H488.294L497.172 1078.33H508.891L500.013 1053.91H558.697L567.575 1078.33H579.294L570.416 1053.91H629.1L637.978 1078.33H649.697L640.819 1053.91H699.592L708.47 1078.33H720.189L711.311 1053.91H769.995L778.873 1078.33H790.592L781.714 1053.91H840.398L849.276 1078.33H860.996L852.117 1053.91H910.802L919.68 1078.33H931.399L922.521 1053.91H964.691L960.43 1042.19H918.259L896.863 983.509H939.034L934.772 971.789H892.601L871.205 913.106H913.376L909.115 901.387H866.944L845.548 842.703H887.719L883.457 830.984H841.286L822.553 779.402H810.834L829.567 830.984H770.883L752.15 779.402H740.431L759.164 830.984H700.48L681.836 779.313H670.117L688.85 830.895H630.166L611.433 779.313H599.714L618.446 830.895H559.762L541.03 779.313H529.311L548.043 830.895H489.359L470.538 779.313H458.819L477.551 830.895H418.867L400.135 779.313H388.416L407.148 830.895H348.464L329.731 779.313H318.012L336.745 830.895H278.061L259.24 779.313H247.521L266.253 830.895H223.461L227.722 842.614H270.515L291.911 901.298H249.119L253.38 913.017H296.172L317.569 971.701H274.776L279.038 983.42H321.83L343.226 1042.1H300.434L304.695 1053.82H347.488L356.366 1078.24H368.085L359.118 1053.91ZM425.348 1042.19L403.952 983.509H462.636L484.032 1042.19H425.348ZM740.165 971.789H681.481L660.085 913.017H718.769L740.165 971.789ZM730.488 913.017H789.172L810.568 971.701H751.884L730.488 913.017ZM669.673 971.789H610.989L589.593 913.017H648.277L669.673 971.789ZM599.27 971.789H540.586L519.19 913.017H577.874L599.27 971.789ZM528.778 971.789H470.094L448.786 913.017H507.471L528.778 971.789ZM458.375 971.789H399.691L378.295 913.017H436.979L458.375 971.789ZM495.752 1042.19L474.355 983.509H533.039L554.436 1042.19H495.752ZM566.155 1042.19L544.758 983.509H603.443L624.839 1042.19H566.155ZM636.647 1042.19L615.25 983.509H673.934L695.331 1042.19H636.647ZM707.05 1042.19L685.654 983.509H744.338L765.734 1042.19H707.05ZM777.542 1042.19L756.145 983.509H814.83L836.226 1042.19H777.542ZM906.629 1042.19H847.945L826.549 983.509H885.233L906.629 1042.19ZM880.971 971.789H822.287L800.891 913.106H859.575L880.971 971.789ZM834.006 842.614L855.402 901.298H796.718L775.322 842.614H834.006ZM763.603 842.614L784.999 901.298H726.226L704.83 842.614H763.603ZM693.111 842.614L714.507 901.298H655.823L634.427 842.614H693.111ZM622.708 842.614L644.104 901.298H585.42L564.024 842.614H622.708ZM552.216 842.614L573.612 901.298H514.928L493.532 842.614H552.216ZM481.813 842.614L503.209 901.298H444.525L423.129 842.614H481.813ZM411.41 842.614L432.806 901.298H374.122L352.726 842.614H411.41ZM282.234 842.614H340.918L362.314 901.298H303.63L282.234 842.614ZM307.891 913.017H366.576L387.972 971.701H329.288L307.891 913.017ZM333.549 983.509H392.233L413.629 1042.19H354.945L333.549 983.509Z" fill="url(#paint43_linear_200_2)"/>
<path d="M899.932 1059.42C899.932 1059.42 833.702 946.932 772.887 915.237C712.072 883.542 797.213 831.073 861.312 861.88C925.412 892.687 996.259 981.023 996.259 981.023L899.932 1059.42Z" fill="url(#paint44_linear_200_2)"/>
<path d="M767.912 1092.35L720.415 1118.99C720.415 1118.99 613.789 913.994 536.283 864.011C458.778 814.027 403.822 862.324 435.428 897.304C467.123 932.283 502.103 975.697 539.568 1080.64C577.034 1185.57 595.411 1226.86 622.933 1267.07C650.455 1307.29 717.929 1322.3 772.085 1289.8C826.241 1257.31 872.052 1236.09 872.052 1236.09L767.912 1092.35Z" fill="url(#paint45_linear_200_2)"/>
<path d="M1224.07 590.388L1201.7 595.271L941.035 652.357C942.456 651.291 970.244 630.25 1009.75 598.2C1076.96 543.6 1178.08 457.039 1240.94 381.93C1266.15 351.834 1285.15 323.602 1293.49 299.986C1293.49 299.986 1305.57 317.121 1314.54 345.442C1331.85 400.042 1337.71 495.925 1224.07 590.388Z" fill="url(#paint46_linear_200_2)"/>
<path d="M1224.07 590.388L1201.7 595.271C1270.68 495.57 1254.08 416.111 1240.94 381.93C1266.15 351.834 1285.15 323.602 1293.49 299.986C1293.49 300.075 1396.75 446.829 1224.07 590.388Z" fill="url(#paint47_linear_200_2)"/>
<path d="M1500 433.068C1498.67 442.479 1497.16 451.624 1495.29 460.413C1492.72 473.02 1489.52 485.094 1485.88 496.547C1448.06 616.578 1359.1 674.375 1293.4 701.453C1248.93 719.742 1215.1 724.092 1215.1 724.092L1117.44 735.189C1138.13 762.623 1174.79 759.427 1174.79 759.427C1151.98 807.013 1099.24 801.775 1099.24 801.775C1116.73 816.779 1147.36 810.564 1147.36 810.564C1138.93 850.516 1083.97 860.459 1083.97 860.459L1096.76 885.762L1132.09 956.076H960.211L959.767 950.927L955.86 911.242C891.672 914.704 843.553 887.537 827.661 856.908C823.577 849.006 821.624 840.927 822.068 833.026C822.334 829.475 822.778 826.19 823.577 823.171C828.282 804.882 842.487 796.537 854.739 778.603C855.982 776.828 857.225 774.874 858.379 772.832C863.883 763.422 868.678 751.347 871.607 734.657C881.462 677.926 940.856 652.446 940.856 652.446L1054.41 607.878L1431.99 459.703L1500 433.068Z" fill="url(#paint48_linear_200_2)"/>
<path opacity="0.5" d="M944.854 843.591C962.947 843.591 977.614 836.396 977.614 827.521C977.614 818.646 962.947 811.451 944.854 811.451C926.761 811.451 912.094 818.646 912.094 827.521C912.094 836.396 926.761 843.591 944.854 843.591Z" fill="#FFCA83"/>
<path d="M912.713 714.504C913.601 713.438 914.044 712.994 914.666 712.373C915.287 711.751 915.82 711.307 916.353 710.775C917.507 709.798 918.661 708.822 919.904 708.023C922.301 706.336 924.787 705.004 927.362 703.761C932.511 701.364 937.838 699.855 943.253 698.878C948.669 697.813 953.996 697.635 959.323 697.635C961.986 697.724 964.561 697.902 967.224 697.99L975.037 698.967C981.251 699.677 985.691 705.359 984.891 711.574C984.181 717.788 978.499 722.228 972.285 721.428C971.841 721.34 971.397 721.251 970.953 721.162L970.331 720.985L964.117 719.387C962.075 719.031 959.944 718.587 957.902 718.232C953.729 717.788 949.557 717.345 945.562 717.611C941.478 717.788 937.571 718.41 933.843 719.564C932.067 720.186 930.203 720.896 928.604 721.695C927.805 722.139 927.006 722.583 926.296 723.027C925.941 723.293 925.586 723.47 925.32 723.737C925.053 723.914 924.609 724.358 924.698 724.092C922.035 727.377 917.152 727.821 913.867 725.157C910.493 722.583 910.049 717.788 912.713 714.504Z" fill="#F87C38"/>
<path d="M1132.09 955.987H960.212L959.68 950.838C1043.49 937.076 1083.53 900.498 1096.67 885.672L1132.09 955.987Z" fill="#F87C38"/>
<path d="M955.861 911.153C955.861 911.153 997.499 907.602 1006.11 905.738C1006.11 905.738 1002.65 931.039 958.702 940.627L955.861 911.153Z" fill="#F87C38"/>
<path d="M1485.88 496.547C1422.49 697.813 1215.1 724.003 1215.1 724.003L1117.44 735.101C1117.44 735.101 1102.53 706.78 1093.65 694.439C1093.74 694.528 1402.25 641.171 1485.88 496.547Z" fill="url(#paint49_linear_200_2)"/>
<path d="M1500 433.068C1496.89 455.974 1492.1 477.104 1485.97 496.547C1448.15 616.578 1359.19 674.286 1293.49 701.364C1375.62 635.932 1417.17 513.593 1432.08 459.703L1500 433.068Z" fill="url(#paint50_linear_200_2)"/>
<path opacity="0.3" d="M1500 433.068C1498.66 442.479 1497.15 451.624 1495.29 460.413L1054.49 607.878L1432.08 459.703L1500 433.068Z" fill="#FFCA83"/>
<path opacity="0.3" d="M1314.53 345.53C1256.47 411.672 1124.81 551.235 1009.75 598.2C1076.96 543.6 1178.08 457.039 1240.94 381.93C1266.15 351.834 1285.15 323.602 1293.49 299.986C1293.49 300.075 1305.57 317.209 1314.53 345.53Z" fill="#FFCA83"/>
<path d="M1004.78 913.549H929.496V902.008H1004.78C1017.92 902.008 1028.66 891.266 1028.66 878.126V851.581H1040.21V878.126C1040.21 897.658 1024.31 913.549 1004.78 913.549Z" fill="url(#paint51_linear_200_2)"/>
<path d="M954.442 924.203H911.028C902.594 924.203 895.758 917.367 895.758 908.932C895.758 900.498 902.594 893.662 911.028 893.662H954.442C959.236 893.662 963.231 897.568 963.231 902.451V915.413C963.231 920.296 959.236 924.203 954.442 924.203Z" fill="url(#paint52_linear_200_2)"/>
<path d="M1040.91 867.472H1027.95C1022.71 867.472 1018.45 863.21 1018.45 857.973V835.601H1050.33V857.973C1050.33 863.299 1046.15 867.472 1040.91 867.472Z" fill="url(#paint53_linear_200_2)"/>
<path d="M1070.66 687.868L1056.72 693.106C1048.46 696.214 1042.96 704.115 1042.96 712.993V732.525H1078.65V693.461C1078.65 689.289 1074.56 686.448 1070.66 687.868Z" fill="url(#paint54_linear_200_2)"/>
<path d="M1068.88 836.399L1016.68 847.23C1011.26 848.384 1006.82 844.833 1006.82 839.417V736.431C1006.82 731.016 1011.26 725.689 1016.68 724.535L1068.88 713.704C1074.3 712.549 1078.73 716.101 1078.73 721.516V824.502C1078.65 829.918 1074.3 835.244 1068.88 836.399Z" fill="url(#paint55_linear_200_2)"/>
<path d="M1068.88 836.4L1035.5 843.325C1030.08 844.479 1025.64 840.928 1025.64 835.512V732.525C1025.64 727.11 1030.08 721.783 1035.5 720.629L1068.88 713.704C1074.3 712.549 1078.74 716.101 1078.74 721.516V824.503C1078.65 829.919 1074.3 835.246 1068.88 836.4Z" fill="url(#paint56_linear_200_2)"/>
<path d="M1078.64 762.09L1047.93 768.482C1045.71 768.926 1043.93 767.506 1043.93 765.286V758.539C1043.93 756.319 1045.71 754.188 1047.93 753.745L1078.64 747.352V762.09Z" fill="url(#paint57_linear_200_2)"/>
<path d="M1078.64 786.327L1047.93 792.719C1045.71 793.163 1043.93 791.743 1043.93 789.523V782.775C1043.93 780.556 1045.71 778.425 1047.93 777.981L1078.64 771.589V786.327Z" fill="url(#paint58_linear_200_2)"/>
<path d="M1078.64 810.564L1047.93 816.956C1045.71 817.4 1043.93 815.98 1043.93 813.76V807.013C1043.93 804.793 1045.71 802.663 1047.93 802.219L1078.64 795.826V810.564Z" fill="url(#paint59_linear_200_2)"/>
<path d="M937.128 796.714C944.728 796.714 950.889 788.367 950.889 778.07C950.889 767.773 944.728 759.426 937.128 759.426C929.528 759.426 923.367 767.773 923.367 778.07C923.367 788.367 929.528 796.714 937.128 796.714Z" fill="url(#paint60_linear_200_2)"/>
<path d="M931.89 775.673C933.459 775.673 934.731 773.924 934.731 771.767C934.731 769.609 933.459 767.86 931.89 767.86C930.321 767.86 929.049 769.609 929.049 771.767C929.049 773.924 930.321 775.673 931.89 775.673Z" fill="white"/>
<path d="M945.295 718.676C915.553 718.676 891.316 742.824 891.316 772.654C891.316 772.743 891.316 772.832 891.316 772.921H858.378C857.224 774.963 855.981 776.827 854.738 778.691H891.671C894.69 805.592 917.506 826.633 945.295 826.633C975.036 826.633 999.185 802.485 999.185 772.743C999.185 742.824 975.036 718.676 945.295 718.676ZM945.295 820.773C918.749 820.773 897.087 799.111 897.087 772.565C897.087 746.02 918.66 724.358 945.295 724.358C971.84 724.358 993.503 745.931 993.503 772.565C993.503 799.2 971.84 820.773 945.295 820.773Z" fill="url(#paint61_linear_200_2)"/>
<path d="M859.445 834.358C859.445 838.619 857.048 842.526 853.231 844.39L827.751 856.908C823.667 849.007 821.714 840.928 822.158 833.026C822.424 829.475 822.868 826.19 823.667 823.172H848.348C854.474 823.172 859.445 828.143 859.445 834.358Z" fill="#F87C38"/>
<path d="M931.532 874.929C927.005 874.929 924.075 874.574 923.631 874.486C922.477 874.308 921.678 873.243 921.766 872.089C921.944 870.934 923.009 870.047 924.164 870.224C924.519 870.313 957.634 874.663 977.698 851.314C978.497 850.426 979.829 850.337 980.717 851.047C981.605 851.847 981.693 853.178 980.983 854.066C965.535 872.266 943.251 874.929 931.532 874.929Z" fill="#F87C38"/>
<path d="M747.937 1118.19C747.937 1118.19 738.26 1200.31 789.753 1279.41L849.591 1246.83L747.937 1118.19Z" fill="url(#paint62_linear_200_2)"/>
<path d="M899.929 1406.9L909.961 1194.45L843.731 1253.22L764.982 1094.48C764.982 1094.48 840.002 1028.25 886.257 995.76C932.512 963.267 992.527 932.016 1076.25 932.016C1159.97 932.016 1228.6 930.773 1257.45 1010.76C1286.3 1090.76 1296.25 1406.99 1296.25 1406.99H899.929V1406.9Z" fill="url(#paint63_linear_200_2)"/>
<path d="M909.961 1194.36L917.064 1074.07L801.826 1151.93L843.731 1253.14L909.961 1194.36Z" fill="url(#paint64_linear_200_2)"/>
<path d="M816.476 1066.16C827.219 1100.26 848.082 1158.41 881.109 1220.29C886.435 1230.32 883.595 1242.75 874.539 1249.59L848.082 1269.56C836.985 1277.91 821.093 1274.71 814.168 1262.64C793.837 1227.21 756.017 1156.54 742.877 1099.37C740.835 1090.4 744.386 1081.17 751.755 1075.75L780.786 1054.53C793.571 1045.21 811.771 1051.07 816.476 1066.16Z" fill="url(#paint65_linear_200_2)"/>
<path d="M838.758 1247.81C817.895 1211.5 779.009 1138.88 765.514 1080.1C764.271 1074.6 765.07 1069.01 767.556 1064.21L751.753 1075.75C744.384 1081.17 740.744 1090.4 742.875 1099.37C756.015 1156.54 793.835 1227.21 814.166 1262.64C821.091 1274.71 836.983 1277.91 848.08 1269.56L861.309 1259.62C852.519 1260.33 843.552 1256.07 838.758 1247.81Z" fill="url(#paint66_linear_200_2)"/>
<path d="M909.96 1194.36L905.965 1279.41H1290.21L1279.2 1139.05H913.245L909.96 1194.36Z" fill="url(#paint67_linear_200_2)"/>
<path d="M899.93 1406.9H1296.16C1296.16 1406.9 1295.89 1398.56 1295.36 1384.44H900.995L899.93 1406.9Z" fill="url(#paint68_linear_200_2)"/>
<path d="M720.413 1118.99L686.588 1058.35C672.117 1033.67 654.094 1004.19 634.562 975.34C655.071 1050.8 644.417 1158.14 644.417 1158.14L720.413 1118.99Z" fill="url(#paint69_linear_200_2)"/>
<path d="M583.781 936.011L498.285 985.462L513.822 1016.71L609.971 968.772L583.781 936.011Z" fill="url(#paint70_linear_200_2)"/>
<path d="M631.367 939.385C644.24 961.58 642.642 986.616 627.727 995.317C612.812 1004.02 590.262 993.008 577.388 970.813C564.515 948.618 566.113 923.582 581.028 914.881C595.944 906.181 618.494 917.19 631.367 939.385Z" fill="url(#paint71_linear_200_2)"/>
<path d="M623.289 944.09C632.523 959.981 632.434 977.205 623.201 982.621C613.967 988.036 598.963 979.513 589.73 963.621C580.497 947.73 580.586 930.506 589.819 925.091C599.052 919.675 614.056 928.198 623.289 944.09Z" fill="url(#paint72_linear_200_2)"/>
<path d="M980.637 1348.4H1272.28C1294.83 1348.4 1313.12 1330.11 1313.12 1307.56V987.593C1313.12 965.042 1294.83 946.754 1272.28 946.754H980.637V1348.4Z" fill="url(#paint73_linear_200_2)"/>
<path d="M980.637 1139.05V1348.49H1272.28C1294.83 1348.49 1313.12 1330.2 1313.12 1307.65V1139.05H980.637Z" fill="url(#paint74_linear_200_2)"/>
<path d="M1296.25 1187.17C1287.82 1187.17 1280.09 1191.79 1276.19 1199.25C1254.61 1240 1211.73 1267.79 1162.37 1267.79C1113.01 1267.79 1070.22 1240 1048.55 1199.25C1044.65 1191.79 1036.92 1187.17 1028.49 1187.17H980.637V1348.49H1272.28C1294.83 1348.49 1313.12 1330.2 1313.12 1307.65V1187.17H1296.25Z" fill="url(#paint75_linear_200_2)"/>
<path d="M980.636 1348.4C958.086 1348.4 939.797 1330.11 939.797 1307.56V987.593C939.797 965.042 958.086 946.754 980.636 946.754C1003.19 946.754 1021.48 965.042 1021.48 987.593V1307.56C1021.48 1330.11 1003.19 1348.4 980.636 1348.4Z" fill="url(#paint76_linear_200_2)"/>
<path d="M980.635 1087.74C967.141 1087.74 956.221 1076.82 956.221 1063.32V989.369C956.221 975.874 967.141 964.954 980.635 964.954C994.13 964.954 1005.05 975.874 1005.05 989.369V1063.32C1005.05 1076.82 994.13 1087.74 980.635 1087.74Z" fill="url(#paint77_linear_200_2)"/>
<path d="M1162.37 1234.05C1214.83 1234.05 1257.37 1191.52 1257.37 1139.05C1257.37 1086.59 1214.83 1044.06 1162.37 1044.06C1109.91 1044.06 1067.38 1086.59 1067.38 1139.05C1067.38 1191.52 1109.91 1234.05 1162.37 1234.05Z" fill="url(#paint78_linear_200_2)"/>
<path d="M1161.75 1143.4L1136.89 1146.6L1125.62 1095.02C1123.49 1085.07 1130.32 1075.49 1140.35 1074.15C1150.39 1072.91 1159.44 1080.46 1159.8 1090.67L1161.75 1143.4Z" fill="url(#paint79_linear_200_2)"/>
<path d="M1169.03 1143.58L1193.71 1148.11L1207.74 1097.15C1210.4 1087.38 1204.1 1077.35 1194.16 1075.57C1184.21 1073.8 1174.8 1080.9 1173.83 1091.02L1169.03 1143.58Z" fill="url(#paint80_linear_200_2)"/>
<path d="M1164.86 1204.13C1188.74 1204.13 1208.09 1184.77 1208.09 1160.89C1208.09 1137.01 1188.74 1117.66 1164.86 1117.66C1140.98 1117.66 1121.62 1137.01 1121.62 1160.89C1121.62 1184.77 1140.98 1204.13 1164.86 1204.13Z" fill="url(#paint81_linear_200_2)"/>
<path d="M1149.68 1167.64C1149.59 1170.84 1147.55 1173.32 1145.15 1173.32C1142.75 1173.23 1140.89 1170.66 1140.98 1167.46C1141.07 1164.27 1143.11 1161.78 1145.51 1161.78C1147.9 1161.78 1149.77 1164.44 1149.68 1167.64Z" fill="url(#paint82_linear_200_2)"/>
<path d="M1188.48 1168.62C1188.39 1171.81 1186.34 1174.3 1183.95 1174.3C1181.55 1174.21 1179.69 1171.64 1179.77 1168.44C1179.86 1165.24 1181.91 1162.76 1184.3 1162.76C1186.7 1162.85 1188.56 1165.42 1188.48 1168.62Z" fill="url(#paint83_linear_200_2)"/>
<path d="M130.742 1031.98H444.67C456.034 1031.98 468.641 1041.22 472.725 1052.58L557.244 1284.74C561.417 1296.11 555.558 1305.34 544.194 1305.34H230.176C218.812 1305.34 206.205 1296.11 202.121 1284.74L117.602 1052.58C113.518 1041.22 119.378 1031.98 130.742 1031.98Z" fill="url(#paint84_linear_200_2)"/>
<path d="M239.141 1071.58H165.453C163.322 1071.58 161.103 1069.89 160.304 1067.76C159.505 1065.63 160.659 1063.94 162.701 1063.94H236.3C238.431 1063.94 240.651 1065.63 241.45 1067.76C242.249 1069.89 241.183 1071.58 239.141 1071.58Z" fill="url(#paint85_linear_200_2)"/>
<path d="M273.411 1094.49H173.799C171.668 1094.49 169.449 1092.8 168.65 1090.67C167.851 1088.54 169.005 1086.85 171.047 1086.85H270.659C272.789 1086.85 275.009 1088.54 275.808 1090.67C276.607 1092.8 275.542 1094.49 273.411 1094.49Z" fill="url(#paint86_linear_200_2)"/>
<path d="M197.328 1208.84C196.352 1208.84 195.198 1208.57 194.132 1207.95C191.114 1206.35 189.16 1203.06 189.871 1200.58C190.137 1199.51 197.239 1175.1 222.986 1178.12C230.532 1179.01 237.812 1182.11 244.915 1185.22C260.895 1192.14 271.46 1196.67 278.296 1173.41C284.866 1150.77 298.982 1137.72 317.981 1136.66C334.495 1135.77 353.494 1143.94 372.937 1160.36C392.024 1176.52 408.715 1184.15 419.902 1182.02C430.644 1179.98 436.326 1168.44 435.971 1149.62C434.906 1101.41 478.142 1103.99 478.586 1103.99C481.604 1104.16 484.8 1106.74 485.599 1109.76C486.487 1112.69 484.712 1114.91 481.693 1114.73C480.273 1114.64 446.536 1112.95 447.424 1153.17C448.045 1182.2 435.971 1190.64 425.761 1192.59C410.846 1195.52 390.071 1186.46 367.255 1167.2C351.097 1153.53 335.649 1146.69 322.598 1147.4C306.973 1148.29 295.253 1159.56 289.571 1179.27C280.427 1210.61 260.096 1201.82 243.761 1194.81C237.368 1192.06 231.331 1189.48 225.827 1188.86C207.094 1186.73 201.235 1206.35 201.235 1206.53C200.524 1207.95 199.104 1208.84 197.328 1208.84Z" fill="url(#paint87_linear_200_2)"/>
<path d="M184.098 1235.29L202.12 1284.74C206.293 1296.11 218.811 1305.34 230.175 1305.34H544.104C555.468 1305.34 561.327 1296.11 557.154 1284.74L539.132 1235.29H184.098Z" fill="url(#paint88_linear_200_2)"/>
<path d="M242.097 919.643H146.315C132.919 919.643 121.979 908.777 121.979 895.307V876.105C121.979 868.738 127.932 862.784 135.3 862.784H253.038C260.405 862.784 266.359 868.738 266.359 876.105V895.307C266.359 908.703 255.493 919.643 242.097 919.643Z" fill="url(#paint89_linear_200_2)"/>
<path d="M401.959 762.536C380.45 769.681 347.779 780.919 320.986 791.264C303.72 797.962 295.013 817.312 301.413 834.727C308.781 854.598 332.373 862.933 350.607 852.142C373.306 838.671 402.405 820.959 423.541 806.893C433.067 800.492 437.086 788.436 433.142 777.719C428.528 764.918 414.759 758.294 401.959 762.536Z" fill="url(#paint90_linear_200_2)"/>
<path d="M318.902 853.63C324.782 853.63 330.736 852.141 336.243 848.867C358.942 835.396 388.041 817.684 409.177 803.618C418.704 797.217 422.723 785.161 418.778 774.444C416.694 768.713 412.675 764.248 407.763 761.42C418.704 760.527 429.272 766.927 433.142 777.644C437.086 788.435 433.142 800.492 423.541 806.818C402.331 820.958 373.231 838.596 350.607 852.067C340.485 858.17 328.652 858.17 318.902 853.63Z" fill="url(#paint91_linear_200_2)"/>
<path d="M327.089 837.555C335.515 837.555 342.345 830.725 342.345 822.299C342.345 813.873 335.515 807.042 327.089 807.042C318.663 807.042 311.832 813.873 311.832 822.299C311.832 830.725 318.663 837.555 327.089 837.555Z" fill="url(#paint92_linear_200_2)"/>
<path d="M275.143 899.102H104.342C79.4848 899.102 59.3906 879.008 59.3906 854.151V816.121C59.3906 802.576 70.4052 791.561 83.9502 791.561H295.535C309.08 791.561 320.095 802.576 320.095 816.121V854.151C320.095 879.008 300 899.102 275.143 899.102Z" fill="url(#paint93_linear_200_2)"/>
<path d="M90.7972 854.151V816.121C90.7972 802.576 101.812 791.561 115.357 791.561H83.9502C70.4052 791.561 59.3906 802.576 59.3906 816.121V854.151C59.3906 879.008 79.4848 899.102 104.342 899.102H135.749C110.966 899.102 90.7972 879.008 90.7972 854.151Z" fill="url(#paint94_linear_200_2)"/>
<path d="M360.431 776.23H328.28C312.874 776.23 300.371 763.727 300.371 748.322V617.634C300.371 609.15 307.218 602.303 315.702 602.303H360.431C368.915 602.303 375.762 609.15 375.762 617.634V760.825C375.762 769.309 368.915 776.23 360.431 776.23Z" fill="url(#paint95_linear_200_2)"/>
<path d="M262.264 563.454L198.335 559.659L197.516 397.342C197.368 372.782 217.983 353.284 242.468 354.698C266.953 356.112 285.112 377.992 282.135 402.328L262.264 563.454Z" fill="url(#paint96_linear_200_2)"/>
<path d="M245.965 562.487L214.559 560.626L216.642 431.204C216.866 419.073 227.136 409.547 239.193 410.217C251.324 410.961 260.403 421.604 259.138 433.66L245.965 562.487Z" fill="url(#paint97_linear_200_2)"/>
<path d="M169.462 556.533L105.979 564.496L75.4658 405.082C70.8516 380.969 87.5223 358.047 111.859 354.921C136.195 351.87 158.075 370.029 159.564 394.44L169.462 556.533Z" fill="url(#paint98_linear_200_2)"/>
<path d="M153.314 558.617L122.056 562.561L100.399 434.926C98.3893 422.944 106.725 411.706 118.781 410.218C130.838 408.729 141.704 417.511 142.671 429.642L153.314 558.617Z" fill="url(#paint99_linear_200_2)"/>
<path d="M271.792 808.009H96.8977C57.3046 808.009 25.3027 775.933 25.3027 736.414V564.943C25.3027 549.314 37.9547 536.588 53.6579 536.588H315.106C330.735 536.588 343.461 549.24 343.461 564.943V736.414C343.387 775.933 311.385 808.009 271.792 808.009Z" fill="url(#paint100_linear_200_2)"/>
<path d="M60.0594 776.23H27.9086C12.5031 776.23 0 763.653 0 748.247V617.634C0 609.15 6.84692 602.303 15.3311 602.303H60.0594C68.5436 602.303 75.3905 609.15 75.3905 617.634V760.825C75.465 769.309 68.5436 776.23 60.0594 776.23Z" fill="url(#paint101_linear_200_2)"/>
<path d="M40.7094 776.23C40.7094 764.323 48.8959 754.35 59.9106 751.671C63.4084 750.778 66.0132 747.801 66.0132 744.228V638.994C66.0132 630.733 59.3152 624.035 51.0542 624.035H0V748.247C0 763.653 12.5031 776.156 27.9086 776.156H40.7094V776.23Z" fill="url(#paint102_linear_200_2)"/>
<path d="M44.505 694.439C44.505 688.634 39.8163 683.946 34.0113 683.946H0V704.933H34.0858C39.8163 704.933 44.505 700.244 44.505 694.439Z" fill="url(#paint103_linear_200_2)"/>
<path d="M34.6067 649.785H0V670.772H34.6067C40.4117 670.772 45.1004 666.084 45.1004 660.279C45.1004 654.474 40.3373 649.785 34.6067 649.785Z" fill="url(#paint104_linear_200_2)"/>
<path d="M43.984 728.674C43.984 722.869 39.2954 718.18 33.4904 718.18H0V739.168H33.5648C39.2954 739.168 43.984 734.479 43.984 728.674Z" fill="url(#paint105_linear_200_2)"/>
<path d="M265.095 787.021H165.516C133.142 787.021 106.871 760.75 106.871 728.376V587.791C106.871 574.99 117.29 564.571 130.091 564.571H300.52C313.321 564.571 323.74 574.99 323.74 587.791V728.376C323.74 760.75 297.469 787.021 265.095 787.021Z" fill="url(#paint106_linear_200_2)"/>
<path d="M221.929 624.035C211.435 624.035 202.951 615.551 202.951 605.057V564.571H240.907V605.057C240.907 615.551 232.423 624.035 221.929 624.035Z" fill="url(#paint107_linear_200_2)"/>
<path d="M176.308 608.927C165.814 608.927 157.33 600.443 157.33 589.949V564.571H195.286V589.949C195.286 600.443 186.802 608.927 176.308 608.927Z" fill="url(#paint108_linear_200_2)"/>
<path d="M267.552 608.927C257.058 608.927 248.574 600.443 248.574 589.949V564.571H286.53V589.949C286.456 600.443 277.971 608.927 267.552 608.927Z" fill="url(#paint109_linear_200_2)"/>
<path d="M176.306 683.35C186.787 683.35 195.284 674.853 195.284 664.372C195.284 653.891 186.787 645.394 176.306 645.394C165.825 645.394 157.328 653.891 157.328 664.372C157.328 674.853 165.825 683.35 176.306 683.35Z" fill="url(#paint110_linear_200_2)"/>
<path d="M181.887 667.572C185.134 667.572 187.767 664.94 187.767 661.693C187.767 658.445 185.134 655.813 181.887 655.813C178.64 655.813 176.008 658.445 176.008 661.693C176.008 664.94 178.64 667.572 181.887 667.572Z" fill="white"/>
<path d="M258.249 683.35C268.731 683.35 277.227 674.853 277.227 664.372C277.227 653.891 268.731 645.394 258.249 645.394C247.768 645.394 239.271 653.891 239.271 664.372C239.271 674.853 247.768 683.35 258.249 683.35Z" fill="url(#paint111_linear_200_2)"/>
<path d="M263.756 667.572C267.003 667.572 269.636 664.94 269.636 661.693C269.636 658.445 267.003 655.813 263.756 655.813C260.509 655.813 257.877 658.445 257.877 661.693C257.877 664.94 260.509 667.572 263.756 667.572Z" fill="white"/>
<path d="M150.708 644.873C149.964 644.873 149.22 644.65 148.55 644.204C146.689 643.013 146.168 640.482 147.434 638.696C153.76 629.021 165.593 623.365 178.17 624.035C180.403 624.109 182.04 626.044 181.966 628.203C181.892 630.435 180.031 632.147 177.798 631.998C167.974 631.552 158.895 635.794 154.057 643.087C153.313 644.278 152.048 644.873 150.708 644.873Z" fill="url(#paint112_linear_200_2)"/>
<path d="M286.23 643.608C284.965 643.608 283.774 643.012 283.03 641.971C278.118 635.198 269.708 631.551 260.108 631.998C257.875 632.147 256.014 630.361 255.94 628.202C255.865 625.97 257.577 624.109 259.735 624.035C272.164 623.514 282.955 628.277 289.505 637.282C290.77 639.068 290.398 641.598 288.612 642.864C287.867 643.31 287.049 643.608 286.23 643.608Z" fill="url(#paint113_linear_200_2)"/>
<path d="M238.673 762.61H201.462C194.02 762.61 187.396 767.597 185.387 774.741L181.889 787.021H258.247L254.749 774.741C252.665 767.597 246.116 762.61 238.673 762.61Z" fill="url(#paint114_linear_200_2)"/>
<path d="M225.352 715.724H217.537C211.286 715.724 205.704 711.705 203.695 705.751L202.206 701.36C201.164 698.16 203.546 694.811 206.895 694.811H235.92C239.343 694.811 241.725 698.16 240.609 701.36L239.12 705.751C237.185 711.705 231.603 715.724 225.352 715.724Z" fill="url(#paint115_linear_200_2)"/>
<path d="M239.641 742.962C231.454 742.962 224.533 738.125 221.481 735.595C204.959 750.032 188.289 734.33 188.14 734.107C187.247 733.214 187.172 731.726 188.065 730.833C188.958 729.94 190.447 729.865 191.34 730.758C191.935 731.353 206.076 744.525 219.77 730.758C220.663 729.865 222.151 729.865 223.044 730.758C223.119 730.832 231.007 738.646 240.31 738.2C245.148 737.976 249.613 735.521 253.558 730.907C254.376 729.939 255.865 729.791 256.832 730.609C257.8 731.428 257.949 732.916 257.13 733.884C252.292 739.539 246.711 742.59 240.459 742.814C240.162 742.962 239.938 742.962 239.641 742.962Z" fill="url(#paint116_linear_200_2)"/>
<path d="M154.278 722.944C166.28 722.944 176.01 718.345 176.01 712.673C176.01 707 166.28 702.402 154.278 702.402C142.276 702.402 132.547 707 132.547 712.673C132.547 718.345 142.276 722.944 154.278 722.944Z" fill="url(#paint117_linear_200_2)"/>
<path d="M279.98 722.944C291.982 722.944 301.711 718.345 301.711 712.673C301.711 707 291.982 702.402 279.98 702.402C267.978 702.402 258.248 707 258.248 712.673C258.248 718.345 267.978 722.944 279.98 722.944Z" fill="url(#paint118_linear_200_2)"/>
<path d="M268.22 869.109H166.93C154.576 869.109 144.604 859.137 144.604 846.783V833.834C144.604 827.061 150.111 821.628 156.809 821.628H278.342C285.114 821.628 290.547 827.136 290.547 833.834V846.783C290.547 859.063 280.574 869.109 268.22 869.109Z" fill="url(#paint119_linear_200_2)"/>
<path d="M277.225 847.602C271.122 849.612 268.071 846.039 264.275 841.5C261.224 837.927 257.726 833.834 252.219 832.941C244.256 831.676 238.897 836.067 234.208 840.011C228.627 844.625 223.789 848.644 215.156 844.253C202.802 837.927 195.36 843.583 188.81 848.644C183.005 853.11 178.019 856.905 170.056 852.514C159.488 846.635 150.929 847.156 144.752 849.537C144.826 850.43 145.05 851.249 145.198 852.142C150.78 849.909 158.669 849.24 168.716 854.821C178.168 860.105 184.345 855.342 190.373 850.728C196.848 845.742 203.025 841.053 213.891 846.635C224.087 851.844 230.115 846.858 235.846 842.021C240.534 838.151 244.925 834.429 251.698 835.546C256.312 836.29 259.289 839.788 262.192 843.211C266.136 847.9 270.229 852.663 278.044 850.133C283.477 848.347 287.495 848.644 290.323 849.686C290.472 848.793 290.547 847.9 290.547 847.007C287.272 845.891 282.956 845.667 277.225 847.602Z" fill="url(#paint120_linear_200_2)"/>
<path d="M7.88575 915.699C13.5419 893.744 22.4727 860.402 30.9569 832.94C36.4642 815.227 55.1444 805.18 72.9315 810.464C93.3234 816.418 103.222 839.415 93.6955 858.318C81.7878 881.836 66.159 912.126 53.5815 934.23C47.9254 944.202 36.1665 948.966 25.0775 945.765C12.1279 942.044 4.46229 928.723 7.88575 915.699Z" fill="url(#paint121_linear_200_2)"/>
<path d="M93.0254 826.54C93.4719 832.419 92.3556 838.448 89.4531 844.178C77.5454 867.696 61.9165 897.986 49.339 920.09C43.6829 930.062 31.924 934.825 20.835 931.625C14.9556 929.913 10.1925 926.267 7.06674 921.578C6.91789 932.518 14.0625 942.64 25.0027 945.766C36.0173 948.966 47.7761 944.128 53.5067 934.23C66.1586 912.126 81.7131 881.911 93.6208 858.319C98.9792 847.75 98.235 835.917 93.0254 826.54Z" fill="url(#paint122_linear_200_2)"/>
<path d="M62.3642 852.142C70.7902 852.142 77.6209 845.311 77.6209 836.885C77.6209 828.459 70.7902 821.628 62.3642 821.628C53.9381 821.628 47.1074 828.459 47.1074 836.885C47.1074 845.311 53.9381 852.142 62.3642 852.142Z" fill="url(#paint123_linear_200_2)"/>
<defs>
<linearGradient id="paint0_linear_200_2" x1="722.338" y1="1030.14" x2="722.338" y2="-587.141" gradientUnits="userSpaceOnUse">
<stop stop-color="#03192E"/>
<stop offset="0.5" stop-color="#223C6A"/>
<stop offset="1" stop-color="#4A74A2"/>
</linearGradient>
<linearGradient id="paint1_linear_200_2" x1="722.338" y1="708.959" x2="722.338" y2="36.2231" gradientUnits="userSpaceOnUse">
<stop stop-color="#03192E"/>
<stop offset="0.5" stop-color="#223C6A"/>
<stop offset="1" stop-color="#4A74A2"/>
</linearGradient>
<linearGradient id="paint2_linear_200_2" x1="490.414" y1="730.902" x2="1094.23" y2="430.634" gradientUnits="userSpaceOnUse">
<stop stop-color="#03192E"/>
<stop offset="0.5" stop-color="#223C6A"/>
<stop offset="1" stop-color="#4A74A2"/>
</linearGradient>
<linearGradient id="paint3_linear_200_2" x1="705.071" y1="571.201" x2="1101.05" y2="420.244" gradientUnits="userSpaceOnUse">
<stop stop-color="#03192E"/>
<stop offset="0.5" stop-color="#223C6A"/>
<stop offset="1" stop-color="#4A74A2"/>
</linearGradient>
<linearGradient id="paint4_linear_200_2" x1="1105.18" y1="542.457" x2="779.45" y2="380.737" gradientUnits="userSpaceOnUse">
<stop stop-color="#386E9F"/>
<stop offset="1" stop-color="white"/>
</linearGradient>
<linearGradient id="paint5_linear_200_2" x1="454.293" y1="658.255" x2="1058.11" y2="357.986" gradientUnits="userSpaceOnUse">
<stop stop-color="#03192E"/>
<stop offset="0.5" stop-color="#223C6A"/>
<stop offset="1" stop-color="#4A74A2"/>
</linearGradient>
<linearGradient id="paint6_linear_200_2" x1="679.488" y1="504.087" x2="1075.47" y2="353.133" gradientUnits="userSpaceOnUse">
<stop stop-color="#03192E"/>
<stop offset="0.5" stop-color="#223C6A"/>
<stop offset="1" stop-color="#4A74A2"/>
</linearGradient>
<linearGradient id="paint7_linear_200_2" x1="1182.38" y1="354.845" x2="702.468" y2="428.753" gradientUnits="userSpaceOnUse">
<stop stop-color="#386E9F"/>
<stop offset="1" stop-color="white"/>
</linearGradient>
<linearGradient id="paint8_linear_200_2" x1="408.585" y1="566.342" x2="1012.4" y2="266.074" gradientUnits="userSpaceOnUse">
<stop stop-color="#03192E"/>
<stop offset="0.5" stop-color="#223C6A"/>
<stop offset="1" stop-color="#4A74A2"/>
</linearGradient>
<linearGradient id="paint9_linear_200_2" x1="654.614" y1="438.839" x2="1050.6" y2="287.884" gradientUnits="userSpaceOnUse">
<stop stop-color="#03192E"/>
<stop offset="0.5" stop-color="#223C6A"/>
<stop offset="1" stop-color="#4A74A2"/>
</linearGradient>
<linearGradient id="paint10_linear_200_2" x1="1009.99" y1="237.982" x2="780.119" y2="451.049" gradientUnits="userSpaceOnUse">
<stop stop-color="#386E9F"/>
<stop offset="1" stop-color="white"/>
</linearGradient>
<linearGradient id="paint11_linear_200_2" x1="1088.51" y1="1086.87" x2="585.212" y2="395.621" gradientUnits="userSpaceOnUse">
<stop stop-color="#FF2A64"/>
<stop offset="1" stop-color="#FFAF48"/>
</linearGradient>
<linearGradient id="paint12_linear_200_2" x1="959.18" y1="1076.23" x2="576.851" y2="330.618" gradientUnits="userSpaceOnUse">
<stop stop-color="#FF2A64"/>
<stop offset="1" stop-color="#FFAF48"/>
</linearGradient>
<linearGradient id="paint13_linear_200_2" x1="619.487" y1="466.117" x2="619.487" y2="385.765" gradientUnits="userSpaceOnUse">
<stop stop-color="#108BB4"/>
<stop offset="1" stop-color="#40C67C"/>
</linearGradient>
<linearGradient id="paint14_linear_200_2" x1="570.006" y1="548.63" x2="570.006" y2="354.456" gradientUnits="userSpaceOnUse">
<stop stop-color="#108BB4"/>
<stop offset="1" stop-color="#40C67C"/>
</linearGradient>
<linearGradient id="paint15_linear_200_2" x1="564.077" y1="457.282" x2="564.077" y2="249.446" gradientUnits="userSpaceOnUse">
<stop stop-color="#386E9F"/>
<stop offset="1" stop-color="white"/>
</linearGradient>
<linearGradient id="paint16_linear_200_2" x1="544.902" y1="440.32" x2="544.902" y2="240.505" gradientUnits="userSpaceOnUse">
<stop stop-color="#03192E"/>
<stop offset="0.5" stop-color="#223C6A"/>
<stop offset="1" stop-color="#4A74A2"/>
</linearGradient>
<linearGradient id="paint17_linear_200_2" x1="559.512" y1="440.321" x2="559.512" y2="240.506" gradientUnits="userSpaceOnUse">
<stop stop-color="#03192E"/>
<stop offset="0.5" stop-color="#223C6A"/>
<stop offset="1" stop-color="#4A74A2"/>
</linearGradient>
<linearGradient id="paint18_linear_200_2" x1="559.512" y1="440.321" x2="559.512" y2="240.505" gradientUnits="userSpaceOnUse">
<stop stop-color="#03192E"/>
<stop offset="0.5" stop-color="#223C6A"/>
<stop offset="1" stop-color="#4A74A2"/>
</linearGradient>
<linearGradient id="paint19_linear_200_2" x1="933.877" y1="460.01" x2="933.877" y2="80.2907" gradientUnits="userSpaceOnUse">
<stop stop-color="#386E9F"/>
<stop offset="1" stop-color="white"/>
</linearGradient>
<linearGradient id="paint20_linear_200_2" x1="914.703" y1="326.559" x2="914.703" y2="123.807" gradientUnits="userSpaceOnUse">
<stop stop-color="#03192E"/>
<stop offset="0.5" stop-color="#223C6A"/>
<stop offset="1" stop-color="#4A74A2"/>
</linearGradient>
<linearGradient id="paint21_linear_200_2" x1="929.313" y1="326.558" x2="929.313" y2="123.806" gradientUnits="userSpaceOnUse">
<stop stop-color="#03192E"/>
<stop offset="0.5" stop-color="#223C6A"/>
<stop offset="1" stop-color="#4A74A2"/>
</linearGradient>
<linearGradient id="paint22_linear_200_2" x1="929.313" y1="326.589" x2="929.313" y2="123.804" gradientUnits="userSpaceOnUse">
<stop stop-color="#03192E"/>
<stop offset="0.5" stop-color="#223C6A"/>
<stop offset="1" stop-color="#4A74A2"/>
</linearGradient>
<linearGradient id="paint23_linear_200_2" x1="709.582" y1="733.492" x2="709.582" y2="328.581" gradientUnits="userSpaceOnUse">
<stop stop-color="#386E9F"/>
<stop offset="1" stop-color="white"/>
</linearGradient>
<linearGradient id="paint24_linear_200_2" x1="709.582" y1="741.222" x2="709.582" y2="465.946" gradientUnits="userSpaceOnUse">
<stop stop-color="#03192E"/>
<stop offset="0.5" stop-color="#223C6A"/>
<stop offset="1" stop-color="#4A74A2"/>
</linearGradient>
<linearGradient id="paint25_linear_200_2" x1="391.876" y1="907.424" x2="818.486" y2="500.503" gradientUnits="userSpaceOnUse">
<stop stop-color="#FF2A64"/>
<stop offset="1" stop-color="#FFAF48"/>
</linearGradient>
<linearGradient id="paint26_linear_200_2" x1="933.875" y1="366.661" x2="933.875" y2="261.654" gradientUnits="userSpaceOnUse">
<stop stop-color="#108BB4"/>
<stop offset="1" stop-color="#40C67C"/>
</linearGradient>
<linearGradient id="paint27_linear_200_2" x1="933.872" y1="339.685" x2="933.872" y2="179.964" gradientUnits="userSpaceOnUse">
<stop stop-color="#108BB4"/>
<stop offset="1" stop-color="#40C67C"/>
</linearGradient>
<linearGradient id="paint28_linear_200_2" x1="294.117" y1="817.347" x2="294.117" y2="323.814" gradientUnits="userSpaceOnUse">
<stop stop-color="#03192E"/>
<stop offset="0.5" stop-color="#223C6A"/>
<stop offset="1" stop-color="#4A74A2"/>
</linearGradient>
<linearGradient id="paint29_linear_200_2" x1="344.07" y1="537.735" x2="344.07" y2="256.304" gradientUnits="userSpaceOnUse">
<stop stop-color="#386E9F"/>
<stop offset="1" stop-color="white"/>
</linearGradient>
<linearGradient id="paint30_linear_200_2" x1="344.07" y1="537.718" x2="344.07" y2="256.322" gradientUnits="userSpaceOnUse">
<stop stop-color="#386E9F"/>
<stop offset="1" stop-color="white"/>
</linearGradient>
<linearGradient id="paint31_linear_200_2" x1="326.049" y1="537.741" x2="326.049" y2="256.31" gradientUnits="userSpaceOnUse">
<stop stop-color="#386E9F"/>
<stop offset="1" stop-color="white"/>
</linearGradient>
<linearGradient id="paint32_linear_200_2" x1="187.978" y1="423.74" x2="187.978" y2="256.269" gradientUnits="userSpaceOnUse">
<stop stop-color="#03192E"/>
<stop offset="0.5" stop-color="#223C6A"/>
<stop offset="1" stop-color="#4A74A2"/>
</linearGradient>
<linearGradient id="paint33_linear_200_2" x1="1041.62" y1="485.872" x2="1041.62" y2="58.4786" gradientUnits="userSpaceOnUse">
<stop stop-color="#386E9F"/>
<stop offset="1" stop-color="white"/>
</linearGradient>
<linearGradient id="paint34_linear_200_2" x1="1040.07" y1="365.824" x2="1040.07" y2="116.358" gradientUnits="userSpaceOnUse">
<stop stop-color="#03192E"/>
<stop offset="0.5" stop-color="#223C6A"/>
<stop offset="1" stop-color="#4A74A2"/>
</linearGradient>
<linearGradient id="paint35_linear_200_2" x1="1040.55" y1="488.845" x2="1040.55" y2="232.795" gradientUnits="userSpaceOnUse">
<stop stop-color="#FF2A64"/>
<stop offset="1" stop-color="#FFAF48"/>
</linearGradient>
<linearGradient id="paint36_linear_200_2" x1="1258.73" y1="591.148" x2="1258.73" y2="118.671" gradientUnits="userSpaceOnUse">
<stop stop-color="#03192E"/>
<stop offset="0.5" stop-color="#223C6A"/>
<stop offset="1" stop-color="#4A74A2"/>
</linearGradient>
<linearGradient id="paint37_linear_200_2" x1="1258.73" y1="546.045" x2="1258.73" y2="155.948" gradientUnits="userSpaceOnUse">
<stop stop-color="#386E9F"/>
<stop offset="1" stop-color="white"/>
</linearGradient>
<linearGradient id="paint38_linear_200_2" x1="1258.73" y1="588.624" x2="1258.73" y2="353.813" gradientUnits="userSpaceOnUse">
<stop stop-color="#FF2A64"/>
<stop offset="1" stop-color="#FFAF48"/>
</linearGradient>
<linearGradient id="paint39_linear_200_2" x1="1135.33" y1="452.914" x2="1135.33" y2="265.443" gradientUnits="userSpaceOnUse">
<stop stop-color="#386E9F"/>
<stop offset="1" stop-color="white"/>
</linearGradient>
<linearGradient id="paint40_linear_200_2" x1="1127.79" y1="452.926" x2="1127.79" y2="265.425" gradientUnits="userSpaceOnUse">
<stop stop-color="#386E9F"/>
<stop offset="1" stop-color="white"/>
</linearGradient>
<linearGradient id="paint41_linear_200_2" x1="694.402" y1="1430.75" x2="513.913" y2="566.043" gradientUnits="userSpaceOnUse">
<stop stop-color="#03192E"/>
<stop offset="0.5" stop-color="#223C6A"/>
<stop offset="1" stop-color="#4A74A2"/>
</linearGradient>
<linearGradient id="paint42_linear_200_2" x1="621.236" y1="1016.89" x2="621.236" y2="340.722" gradientUnits="userSpaceOnUse">
<stop stop-color="#386E9F"/>
<stop offset="1" stop-color="white" stop-opacity="0.5"/>
</linearGradient>
<linearGradient id="paint43_linear_200_2" x1="641.277" y1="1195.23" x2="513.294" y2="509.379" gradientUnits="userSpaceOnUse">
<stop stop-color="#03192E"/>
<stop offset="0.5" stop-color="#223C6A"/>
<stop offset="1" stop-color="#4A74A2"/>
</linearGradient>
<linearGradient id="paint44_linear_200_2" x1="1173.09" y1="1262.59" x2="685.774" y2="735.896" gradientUnits="userSpaceOnUse">
<stop stop-color="#FF2A64"/>
<stop offset="1" stop-color="#FFAF48"/>
</linearGradient>
<linearGradient id="paint45_linear_200_2" x1="1130.68" y1="1615.21" x2="470.427" y2="954.957" gradientUnits="userSpaceOnUse">
<stop stop-color="#FF2A64"/>
<stop offset="1" stop-color="#FFAF48"/>
</linearGradient>
<linearGradient id="paint46_linear_200_2" x1="631.169" y1="1196.8" x2="1335.62" y2="308.574" gradientUnits="userSpaceOnUse">
<stop stop-color="#FF2A64"/>
<stop offset="1" stop-color="#FFAF48"/>
</linearGradient>
<linearGradient id="paint47_linear_200_2" x1="1198.62" y1="1099.42" x2="1303.63" y2="129.702" gradientUnits="userSpaceOnUse">
<stop stop-color="#FF2A64"/>
<stop offset="1" stop-color="#FFAF48"/>
</linearGradient>
<linearGradient id="paint48_linear_200_2" x1="-761.88" y1="3070.42" x2="1226.8" y2="563.23" gradientUnits="userSpaceOnUse">
<stop stop-color="#FF2A64"/>
<stop offset="1" stop-color="#FFAF48"/>
</linearGradient>
<linearGradient id="paint49_linear_200_2" x1="364.891" y1="1203.62" x2="1446.18" y2="547.298" gradientUnits="userSpaceOnUse">
<stop stop-color="#FF2A64"/>
<stop offset="1" stop-color="#FFAF48"/>
</linearGradient>
<linearGradient id="paint50_linear_200_2" x1="1337.46" y1="1114.45" x2="1442.47" y2="144.737" gradientUnits="userSpaceOnUse">
<stop stop-color="#FF2A64"/>
<stop offset="1" stop-color="#FFAF48"/>
</linearGradient>
<linearGradient id="paint51_linear_200_2" x1="984.844" y1="936.208" x2="984.844" y2="747.894" gradientUnits="userSpaceOnUse">
<stop stop-color="#03192E"/>
<stop offset="0.5" stop-color="#223C6A"/>
<stop offset="1" stop-color="#4A74A2"/>
</linearGradient>
<linearGradient id="paint52_linear_200_2" x1="1027.45" y1="908.964" x2="819.578" y2="908.964" gradientUnits="userSpaceOnUse">
<stop stop-color="#386E9F"/>
<stop offset="1" stop-color="white"/>
</linearGradient>
<linearGradient id="paint53_linear_200_2" x1="1034.43" y1="1041.94" x2="1034.43" y2="848.093" gradientUnits="userSpaceOnUse">
<stop stop-color="#03192E"/>
<stop offset="0.5" stop-color="#223C6A"/>
<stop offset="1" stop-color="#4A74A2"/>
</linearGradient>
<linearGradient id="paint54_linear_200_2" x1="1060.84" y1="815.882" x2="1060.84" y2="624.464" gradientUnits="userSpaceOnUse">
<stop stop-color="#386E9F"/>
<stop offset="1" stop-color="white"/>
</linearGradient>
<linearGradient id="paint55_linear_200_2" x1="1042.77" y1="958.815" x2="1042.77" y2="695.52" gradientUnits="userSpaceOnUse">
<stop stop-color="#03192E"/>
<stop offset="0.5" stop-color="#223C6A"/>
<stop offset="1" stop-color="#4A74A2"/>
</linearGradient>
<linearGradient id="paint56_linear_200_2" x1="1052.16" y1="1050.95" x2="1052.16" y2="756.946" gradientUnits="userSpaceOnUse">
<stop stop-color="#03192E"/>
<stop offset="0.5" stop-color="#223C6A"/>
<stop offset="1" stop-color="#4A74A2"/>
</linearGradient>
<linearGradient id="paint57_linear_200_2" x1="1061.33" y1="834.844" x2="1061.33" y2="687.276" gradientUnits="userSpaceOnUse">
<stop stop-color="#03192E"/>
<stop offset="0.5" stop-color="#223C6A"/>
<stop offset="1" stop-color="#4A74A2"/>
</linearGradient>
<linearGradient id="paint58_linear_200_2" x1="1061.33" y1="834.846" x2="1061.33" y2="687.271" gradientUnits="userSpaceOnUse">
<stop stop-color="#03192E"/>
<stop offset="0.5" stop-color="#223C6A"/>
<stop offset="1" stop-color="#4A74A2"/>
</linearGradient>
<linearGradient id="paint59_linear_200_2" x1="1061.33" y1="834.843" x2="1061.33" y2="687.276" gradientUnits="userSpaceOnUse">
<stop stop-color="#03192E"/>
<stop offset="0.5" stop-color="#223C6A"/>
<stop offset="1" stop-color="#4A74A2"/>
</linearGradient>
<linearGradient id="paint60_linear_200_2" x1="937.085" y1="813.695" x2="937.085" y2="700.66" gradientUnits="userSpaceOnUse">
<stop stop-color="#03192E"/>
<stop offset="0.5" stop-color="#223C6A"/>
<stop offset="1" stop-color="#4A74A2"/>
</linearGradient>
<linearGradient id="paint61_linear_200_2" x1="926.983" y1="882.244" x2="926.983" y2="583.874" gradientUnits="userSpaceOnUse">
<stop stop-color="#03192E"/>
<stop offset="0.5" stop-color="#223C6A"/>
<stop offset="1" stop-color="#4A74A2"/>
</linearGradient>
<linearGradient id="paint62_linear_200_2" x1="845.629" y1="1541.55" x2="781.09" y2="1074.47" gradientUnits="userSpaceOnUse">
<stop stop-color="#FF2A64"/>
<stop offset="1" stop-color="#FFAF48"/>
</linearGradient>
<linearGradient id="paint63_linear_200_2" x1="1030.58" y1="1878.03" x2="1030.58" y2="943.029" gradientUnits="userSpaceOnUse">
<stop stop-color="#03192E"/>
<stop offset="0.5" stop-color="#223C6A"/>
<stop offset="1" stop-color="#4A74A2"/>
</linearGradient>
<linearGradient id="paint64_linear_200_2" x1="859.425" y1="1477.71" x2="859.425" y2="907.61" gradientUnits="userSpaceOnUse">
<stop stop-color="#03192E"/>
<stop offset="0.5" stop-color="#223C6A"/>
<stop offset="1" stop-color="#4A74A2"/>
</linearGradient>
<linearGradient id="paint65_linear_200_2" x1="900.315" y1="1419.66" x2="716.544" y2="883.112" gradientUnits="userSpaceOnUse">
<stop stop-color="#386E9F"/>
<stop offset="1" stop-color="white"/>
</linearGradient>
<linearGradient id="paint66_linear_200_2" x1="848.589" y1="1303.14" x2="699.823" y2="922.47" gradientUnits="userSpaceOnUse">
<stop stop-color="#386E9F"/>
<stop offset="1" stop-color="white"/>
</linearGradient>
<linearGradient id="paint67_linear_200_2" x1="1098.07" y1="1791.43" x2="1098.07" y2="1189.2" gradientUnits="userSpaceOnUse">
<stop stop-color="#03192E"/>
<stop offset="0.5" stop-color="#223C6A"/>
<stop offset="1" stop-color="#4A74A2"/>
</linearGradient>
<linearGradient id="paint68_linear_200_2" x1="1098.07" y1="1561.87" x2="1098.07" y2="987.332" gradientUnits="userSpaceOnUse">
<stop stop-color="#386E9F"/>
<stop offset="1" stop-color="white"/>
</linearGradient>
<linearGradient id="paint69_linear_200_2" x1="677.453" y1="1413.68" x2="677.453" y2="949.157" gradientUnits="userSpaceOnUse">
<stop stop-color="#FF2A64"/>
<stop offset="1" stop-color="#FFAF48"/>
</linearGradient>
<linearGradient id="paint70_linear_200_2" x1="554.147" y1="833.892" x2="554.147" y2="1080.07" gradientUnits="userSpaceOnUse">
<stop stop-color="#386E9F"/>
<stop offset="1" stop-color="white"/>
</linearGradient>
<linearGradient id="paint71_linear_200_2" x1="681.571" y1="1150.98" x2="608.282" y2="965.022" gradientUnits="userSpaceOnUse">
<stop stop-color="#03192E"/>
<stop offset="0.5" stop-color="#223C6A"/>
<stop offset="1" stop-color="#4A74A2"/>
</linearGradient>
<linearGradient id="paint72_linear_200_2" x1="655.261" y1="1104.81" x2="583.794" y2="883.847" gradientUnits="userSpaceOnUse">
<stop stop-color="#03192E"/>
<stop offset="0.5" stop-color="#223C6A"/>
<stop offset="1" stop-color="#4A74A2"/>
</linearGradient>
<linearGradient id="paint73_linear_200_2" x1="1146.86" y1="1295.38" x2="1146.86" y2="576.706" gradientUnits="userSpaceOnUse">
<stop stop-color="#03192E"/>
<stop offset="0.5" stop-color="#223C6A"/>
<stop offset="1" stop-color="#4A74A2"/>
</linearGradient>
<linearGradient id="paint74_linear_200_2" x1="1146.86" y1="1522.52" x2="1146.86" y2="1100.79" gradientUnits="userSpaceOnUse">
<stop stop-color="#03192E"/>
<stop offset="0.5" stop-color="#223C6A"/>
<stop offset="1" stop-color="#4A74A2"/>
</linearGradient>
<linearGradient id="paint75_linear_200_2" x1="1146.86" y1="1353.52" x2="1146.86" y2="908.497" gradientUnits="userSpaceOnUse">
<stop stop-color="#03192E"/>
<stop offset="0.5" stop-color="#223C6A"/>
<stop offset="1" stop-color="#4A74A2"/>
</linearGradient>
<linearGradient id="paint76_linear_200_2" x1="980.622" y1="1458.38" x2="980.622" y2="788.348" gradientUnits="userSpaceOnUse">
<stop stop-color="#386E9F"/>
<stop offset="1" stop-color="white"/>
</linearGradient>
<linearGradient id="paint77_linear_200_2" x1="980.621" y1="838.018" x2="980.621" y2="1141.82" gradientUnits="userSpaceOnUse">
<stop stop-color="#03192E"/>
<stop offset="0.5" stop-color="#223C6A"/>
<stop offset="1" stop-color="#4A74A2"/>
</linearGradient>
<linearGradient id="paint78_linear_200_2" x1="1162.38" y1="1342.59" x2="1162.38" y2="1004.58" gradientUnits="userSpaceOnUse">
<stop stop-color="#03192E"/>
<stop offset="0.5" stop-color="#223C6A"/>
<stop offset="1" stop-color="#4A74A2"/>
</linearGradient>
<linearGradient id="paint79_linear_200_2" x1="1151.54" y1="975.439" x2="1135.19" y2="1266.08" gradientUnits="userSpaceOnUse">
<stop stop-color="white"/>
<stop offset="1" stop-color="#F9E4CE"/>
</linearGradient>
<linearGradient id="paint80_linear_200_2" x1="1196.68" y1="977.977" x2="1180.33" y2="1268.62" gradientUnits="userSpaceOnUse">
<stop stop-color="white"/>
<stop offset="1" stop-color="#F9E4CE"/>
</linearGradient>
<linearGradient id="paint81_linear_200_2" x1="1175.38" y1="976.779" x2="1159.03" y2="1267.42" gradientUnits="userSpaceOnUse">
<stop stop-color="white"/>
<stop offset="1" stop-color="#F9E4CE"/>
</linearGradient>
<linearGradient id="paint82_linear_200_2" x1="1144.31" y1="1174.88" x2="1153.57" y2="1113.74" gradientUnits="userSpaceOnUse">
<stop stop-color="#03192E"/>
<stop offset="0.5" stop-color="#223C6A"/>
<stop offset="1" stop-color="#4A74A2"/>
</linearGradient>
<linearGradient id="paint83_linear_200_2" x1="1182.4" y1="1180.64" x2="1191.65" y2="1119.51" gradientUnits="userSpaceOnUse">
<stop stop-color="#03192E"/>
<stop offset="0.5" stop-color="#223C6A"/>
<stop offset="1" stop-color="#4A74A2"/>
</linearGradient>
<linearGradient id="paint84_linear_200_2" x1="567.631" y1="1817.93" x2="293.616" y2="1045.11" gradientUnits="userSpaceOnUse">
<stop stop-color="#03192E"/>
<stop offset="0.5" stop-color="#223C6A"/>
<stop offset="1" stop-color="#4A74A2"/>
</linearGradient>
<linearGradient id="paint85_linear_200_2" x1="-110.728" y1="1097.14" x2="429.097" y2="1046.27" gradientUnits="userSpaceOnUse">
<stop stop-color="#386E9F"/>
<stop offset="1" stop-color="white"/>
</linearGradient>
<linearGradient id="paint86_linear_200_2" x1="-108.396" y1="1121.89" x2="431.43" y2="1071.02" gradientUnits="userSpaceOnUse">
<stop stop-color="#386E9F"/>
<stop offset="1" stop-color="white"/>
</linearGradient>
<linearGradient id="paint87_linear_200_2" x1="409.712" y1="1555.01" x2="314.545" y2="1028.31" gradientUnits="userSpaceOnUse">
<stop stop-color="#FF2A64"/>
<stop offset="1" stop-color="#FFAF48"/>
</linearGradient>
<linearGradient id="paint88_linear_200_2" x1="336.269" y1="1111.74" x2="429.795" y2="1513.74" gradientUnits="userSpaceOnUse">
<stop stop-color="#03192E"/>
<stop offset="0.5" stop-color="#223C6A"/>
<stop offset="1" stop-color="#4A74A2"/>
</linearGradient>
<linearGradient id="paint89_linear_200_2" x1="194.212" y1="861.413" x2="194.212" y2="975.036" gradientUnits="userSpaceOnUse">
<stop stop-color="#386E9F"/>
<stop offset="1" stop-color="white"/>
</linearGradient>
<linearGradient id="paint90_linear_200_2" x1="141.124" y1="950.786" x2="586.771" y2="657.356" gradientUnits="userSpaceOnUse">
<stop stop-color="#386E9F"/>
<stop offset="1" stop-color="white"/>
</linearGradient>
<linearGradient id="paint91_linear_200_2" x1="254.317" y1="913.589" x2="676.123" y2="575.228" gradientUnits="userSpaceOnUse">
<stop stop-color="#386E9F"/>
<stop offset="1" stop-color="white"/>
</linearGradient>
<linearGradient id="paint92_linear_200_2" x1="224.938" y1="908.515" x2="424.838" y2="739.793" gradientUnits="userSpaceOnUse">
<stop stop-color="#03192E"/>
<stop offset="0.5" stop-color="#223C6A"/>
<stop offset="1" stop-color="#4A74A2"/>
</linearGradient>
<linearGradient id="paint93_linear_200_2" x1="176.278" y1="1063.04" x2="191.337" y2="808.312" gradientUnits="userSpaceOnUse">
<stop stop-color="#03192E"/>
<stop offset="0.5" stop-color="#223C6A"/>
<stop offset="1" stop-color="#4A74A2"/>
</linearGradient>
<linearGradient id="paint94_linear_200_2" x1="97.5661" y1="993.43" x2="97.5661" y2="687.228" gradientUnits="userSpaceOnUse">
<stop stop-color="#03192E"/>
<stop offset="0.5" stop-color="#223C6A"/>
<stop offset="1" stop-color="#4A74A2"/>
</linearGradient>
<linearGradient id="paint95_linear_200_2" x1="338.075" y1="809.026" x2="338.075" y2="484.727" gradientUnits="userSpaceOnUse">
<stop stop-color="#03192E"/>
<stop offset="0.5" stop-color="#223C6A"/>
<stop offset="1" stop-color="#4A74A2"/>
</linearGradient>
<linearGradient id="paint96_linear_200_2" x1="240.013" y1="594.784" x2="240.013" y2="350.76" gradientUnits="userSpaceOnUse">
<stop stop-color="#03192E"/>
<stop offset="0.5" stop-color="#223C6A"/>
<stop offset="1" stop-color="#4A74A2"/>
</linearGradient>
<linearGradient id="paint97_linear_200_2" x1="236.943" y1="551.686" x2="236.943" y2="372.539" gradientUnits="userSpaceOnUse">
<stop stop-color="#386E9F"/>
<stop offset="1" stop-color="white"/>
</linearGradient>
<linearGradient id="paint98_linear_200_2" x1="122.045" y1="594.784" x2="122.045" y2="350.76" gradientUnits="userSpaceOnUse">
<stop stop-color="#03192E"/>
<stop offset="0.5" stop-color="#223C6A"/>
<stop offset="1" stop-color="#4A74A2"/>
</linearGradient>
<linearGradient id="paint99_linear_200_2" x1="126.701" y1="551.687" x2="126.701" y2="372.539" gradientUnits="userSpaceOnUse">
<stop stop-color="#386E9F"/>
<stop offset="1" stop-color="white"/>
</linearGradient>
<linearGradient id="paint100_linear_200_2" x1="184.345" y1="940.439" x2="184.345" y2="357.511" gradientUnits="userSpaceOnUse">
<stop stop-color="#386E9F"/>
<stop offset="1" stop-color="white"/>
</linearGradient>
<linearGradient id="paint101_linear_200_2" x1="37.7191" y1="865.377" x2="37.7191" y2="384.879" gradientUnits="userSpaceOnUse">
<stop stop-color="#03192E"/>
<stop offset="0.5" stop-color="#223C6A"/>
<stop offset="1" stop-color="#4A74A2"/>
</linearGradient>
<linearGradient id="paint102_linear_200_2" x1="33.0044" y1="877.784" x2="33.0044" y2="547.655" gradientUnits="userSpaceOnUse">
<stop stop-color="#03192E"/>
<stop offset="0.5" stop-color="#223C6A"/>
<stop offset="1" stop-color="#4A74A2"/>
</linearGradient>
<linearGradient id="paint103_linear_200_2" x1="-175.623" y1="694.471" x2="66.5422" y2="694.471" gradientUnits="userSpaceOnUse">
<stop stop-color="#108BB4"/>
<stop offset="1" stop-color="#40C67C"/>
</linearGradient>
<linearGradient id="paint104_linear_200_2" x1="-175.623" y1="660.244" x2="66.5422" y2="660.244" gradientUnits="userSpaceOnUse">
<stop stop-color="#108BB4"/>
<stop offset="1" stop-color="#40C67C"/>
</linearGradient>
<linearGradient id="paint105_linear_200_2" x1="-175.623" y1="728.698" x2="66.5423" y2="728.698" gradientUnits="userSpaceOnUse">
<stop stop-color="#108BB4"/>
<stop offset="1" stop-color="#40C67C"/>
</linearGradient>
<linearGradient id="paint106_linear_200_2" x1="215.313" y1="1111.77" x2="215.313" y2="553.332" gradientUnits="userSpaceOnUse">
<stop stop-color="#386E9F"/>
<stop offset="1" stop-color="white"/>
</linearGradient>
<linearGradient id="paint107_linear_200_2" x1="221.933" y1="437.982" x2="221.933" y2="727.768" gradientUnits="userSpaceOnUse">
<stop stop-color="#386E9F"/>
<stop offset="1" stop-color="white"/>
</linearGradient>
<linearGradient id="paint108_linear_200_2" x1="176.342" y1="437.982" x2="176.342" y2="727.768" gradientUnits="userSpaceOnUse">
<stop stop-color="#386E9F"/>
<stop offset="1" stop-color="white"/>
</linearGradient>
<linearGradient id="paint109_linear_200_2" x1="267.526" y1="437.982" x2="267.526" y2="727.768" gradientUnits="userSpaceOnUse">
<stop stop-color="#386E9F"/>
<stop offset="1" stop-color="white"/>
</linearGradient>
<linearGradient id="paint110_linear_200_2" x1="176.34" y1="694.733" x2="176.34" y2="596.618" gradientUnits="userSpaceOnUse">
<stop stop-color="#03192E"/>
<stop offset="0.5" stop-color="#223C6A"/>
<stop offset="1" stop-color="#4A74A2"/>
</linearGradient>
<linearGradient id="paint111_linear_200_2" x1="258.232" y1="694.733" x2="258.232" y2="596.618" gradientUnits="userSpaceOnUse">
<stop stop-color="#03192E"/>
<stop offset="0.5" stop-color="#223C6A"/>
<stop offset="1" stop-color="#4A74A2"/>
</linearGradient>
<linearGradient id="paint112_linear_200_2" x1="164.36" y1="731.413" x2="164.36" y2="544.315" gradientUnits="userSpaceOnUse">
<stop stop-color="#386E9F"/>
<stop offset="1" stop-color="white"/>
</linearGradient>
<linearGradient id="paint113_linear_200_2" x1="273.042" y1="731.412" x2="273.042" y2="544.315" gradientUnits="userSpaceOnUse">
<stop stop-color="#386E9F"/>
<stop offset="1" stop-color="white"/>
</linearGradient>
<linearGradient id="paint114_linear_200_2" x1="220.049" y1="913.89" x2="220.049" y2="638.578" gradientUnits="userSpaceOnUse">
<stop stop-color="#386E9F"/>
<stop offset="1" stop-color="white"/>
</linearGradient>
<linearGradient id="paint115_linear_200_2" x1="221.434" y1="732.33" x2="221.434" y2="645.218" gradientUnits="userSpaceOnUse">
<stop stop-color="#386E9F"/>
<stop offset="1" stop-color="white"/>
</linearGradient>
<linearGradient id="paint116_linear_200_2" x1="222.537" y1="782.759" x2="222.537" y2="641.451" gradientUnits="userSpaceOnUse">
<stop stop-color="#386E9F"/>
<stop offset="1" stop-color="white"/>
</linearGradient>
<linearGradient id="paint117_linear_200_2" x1="154.267" y1="858.88" x2="154.267" y2="683.95" gradientUnits="userSpaceOnUse">
<stop stop-color="#386E9F"/>
<stop offset="1" stop-color="white"/>
</linearGradient>
<linearGradient id="paint118_linear_200_2" x1="279.985" y1="858.88" x2="279.985" y2="683.95" gradientUnits="userSpaceOnUse">
<stop stop-color="#386E9F"/>
<stop offset="1" stop-color="white"/>
</linearGradient>
<linearGradient id="paint119_linear_200_2" x1="217.583" y1="945.982" x2="217.583" y2="699.744" gradientUnits="userSpaceOnUse">
<stop stop-color="#03192E"/>
<stop offset="0.5" stop-color="#223C6A"/>
<stop offset="1" stop-color="#4A74A2"/>
</linearGradient>
<linearGradient id="paint120_linear_200_2" x1="217.666" y1="1030.35" x2="217.666" y2="787.208" gradientUnits="userSpaceOnUse">
<stop stop-color="#108BB4"/>
<stop offset="1" stop-color="#40C67C"/>
</linearGradient>
<linearGradient id="paint121_linear_200_2" x1="99.7423" y1="721.444" x2="10.7964" y2="1018.54" gradientUnits="userSpaceOnUse">
<stop stop-color="#386E9F"/>
<stop offset="1" stop-color="white"/>
</linearGradient>
<linearGradient id="paint122_linear_200_2" x1="99.495" y1="790.063" x2="-63.7255" y2="1122.01" gradientUnits="userSpaceOnUse">
<stop stop-color="#386E9F"/>
<stop offset="1" stop-color="white"/>
</linearGradient>
<linearGradient id="paint123_linear_200_2" x1="62.355" y1="974.41" x2="62.355" y2="803.844" gradientUnits="userSpaceOnUse">
<stop stop-color="#03192E"/>
<stop offset="0.5" stop-color="#223C6A"/>
<stop offset="1" stop-color="#4A74A2"/>
</linearGradient>
</defs>
</svg>
