<svg xmlns="http://www.w3.org/2000/svg" enable-background="new 0 0 24 24" viewBox="0 0 24 24" id="caption"><g><path fill="#81caff" d="M21.78,19.39c0.08,0.5699-0.09,1.15-0.46,1.59c-0.39,0.44-0.94,0.69-1.52,0.69c-0.17,0-0.33-0.02-0.49-0.06
			c-1.59-0.4-2.99-1.38-3.9-2.72C12.56,19.07,9.64,19.02,6.78,18.76c-1.1-0.11-2.1-0.48-2.89-1.07c-0.85-0.63-1.41-1.49-1.58-2.41
			C2.1,14.18,2,13.08,2,12c0-1.08,0.1-2.18,0.31-3.28C2.48,7.8,3.04,6.94,3.89,6.31c0.79-0.59,1.79-0.96,2.88-1.06
			c3.48-0.33,6.99-0.33,10.45-0.01c1.1,0.11,2.1,0.48,2.89,1.07c0.85,0.63,1.41,1.49,1.58,2.41c0.42,2.17,0.42,4.39,0,6.57
			c-0.07,0.35-0.19,0.68-0.35,1L21.78,19.39z"></path><path fill="#944cf2" d="M12 11H8c-.5527 0-1-.4473-1-1s.4473-1 1-1h4c.5527 0 1 .4473 1 1S12.5527 11 12 11zM16 15h-4c-.5527 0-1-.4473-1-1s.4473-1 1-1h4c.5527 0 1 .4473 1 1S16.5527 15 16 15zM15 10.999c-.5518 0-.999-.4473-1-.999-.001-.5527.4463-1 .999-1.001l1-.001H16c.5518 0 .999.4473 1 .999.001.5527-.4463 1-.999 1.001l-1 .001H15zM8 14.999c-.5518 0-.999-.4473-1-.999-.001-.5527.4463-1 .999-1.001l1-.001H9c.5518 0 .999.4473 1 .999.001.5527-.4463 1-.999 1.001l-1 .001H8z"></path></g></svg>